<svg xmlns="http://www.w3.org/2000/svg" viewBox="0 0 200 200" width="200" height="200">
  <!-- Background Circle -->
  <circle cx="100" cy="100" r="95" fill="#1e3a8a" stroke="#3b82f6" stroke-width="3"/>
  
  <!-- Shield Shape -->
  <path d="M100 30 L140 50 L140 90 Q140 120 100 150 Q60 120 60 90 L60 50 Z" 
        fill="#3b82f6" stroke="#ffffff" stroke-width="2"/>
  
  <!-- Inner Shield -->
  <path d="M100 45 L130 60 L130 90 Q130 110 100 130 Q70 110 70 90 L70 60 Z" 
        fill="#1e3a8a"/>
  
  <!-- Star in Center -->
  <path d="M100 70 L105 85 L120 87 L110 97 L113 112 L100 105 L87 112 L90 97 L80 87 L95 85 Z" 
        fill="#f59e0b" stroke="#ffffff" stroke-width="1"/>
  
  <!-- Text TG -->
  <text x="100" y="180" font-family="Arial, sans-serif" font-size="32" font-weight="bold" 
        fill="#ffffff" text-anchor="middle">TG</text>
  
  <!-- Police Badge Lines -->
  <line x1="85" y1="75" x2="85" y2="95" stroke="#3b82f6" stroke-width="2"/>
  <line x1="115" y1="75" x2="115" y2="95" stroke="#3b82f6" stroke-width="2"/>
</svg>